<svg height="454.429" viewBox="0 0 526.333 454.429" width="526.333" xmlns="http://www.w3.org/2000/svg"><path d="m0 0h526.333v454.429h-526.333z" fill="#fff"/><text transform="translate(205.211 64.042)"><tspan fill="#656565" font-family="Avenir-Medium" font-size="30" x="-23.91" y="7.5">Vcc</tspan></text><text transform="translate(223.067 365.042)"><tspan fill="#656565" font-family="Avenir-Medium" font-size="30" x="-17.79" y="7.5">0V</tspan></text><text transform="translate(322.567 293.138)"><tspan fill="#656565" font-family="Avenir-Medium" font-size="30" x="-17.505" y="7.5">Re</tspan></text><text transform="translate(391.164 204.714)"><tspan fill="#656565" font-family="Avenir-Medium" font-size="30" x="-49.425" y="7.5">Output</tspan></text><path d="m285.963 131.523v-89.481" fill="none" stroke="#000" stroke-width="3"/><path d="m285.963 199.235v188.807" fill="none" stroke="#000" stroke-width="3"/><path d="m167.044 388.042h224.48" fill="none" stroke="#000" stroke-width="3"/><path d="m167.044 42.042h182" fill="none" stroke="#000" stroke-width="3"/><path d="m290.889 232.641h108" fill="none" stroke="#000" stroke-width="3"/><path d="m274.836 258.269h22.255v70.739h-22.255z" fill="#fff"/><path d="m274.836 258.269h22.255v70.739h-22.255z" fill="none" stroke="#000" stroke-width="2"/><path d="m405.649 239.4c-3.733 0-6.76-3.026-6.76-6.759 0-3.734 3.027-6.76 6.76-6.76s6.759 3.026 6.759 6.76c0 3.733-3.026 6.759-6.759 6.759z" fill="#fff"/><path d="m405.649 239.4c-3.733 0-6.76-3.026-6.76-6.759 0-3.734 3.027-6.76 6.76-6.76s6.759 3.026 6.759 6.76c0 3.733-3.026 6.759-6.759 6.759z" fill="none" stroke="#000" stroke-width="3"/><path d="m285.963 392.968c-2.72 0-4.926-2.206-4.926-4.926 0-2.721 2.206-4.926 4.926-4.926 2.721 0 4.926 2.205 4.926 4.926 0 2.72-2.205 4.926-4.926 4.926z"/><path d="m285.963 392.968c-2.72 0-4.926-2.206-4.926-4.926 0-2.721 2.206-4.926 4.926-4.926 2.721 0 4.926 2.205 4.926 4.926 0 2.72-2.205 4.926-4.926 4.926z" fill="none" stroke="#000" stroke-width="3"/><path d="m285.963 237.567c-2.72 0-4.926-2.206-4.926-4.926 0-2.721 2.206-4.927 4.926-4.927 2.721 0 4.926 2.206 4.926 4.927 0 2.72-2.205 4.926-4.926 4.926z"/><path d="m285.963 237.567c-2.72 0-4.926-2.206-4.926-4.926 0-2.721 2.206-4.927 4.926-4.927 2.721 0 4.926 2.206 4.926 4.927 0 2.72-2.205 4.926-4.926 4.926z" fill="none" stroke="#000" stroke-width="3"/><path d="m285.963 46.968c-2.72 0-4.926-2.206-4.926-4.926 0-2.721 2.206-4.926 4.926-4.926 2.721 0 4.926 2.205 4.926 4.926 0 2.72-2.205 4.926-4.926 4.926z"/><g stroke="#000"><path d="m285.963 46.968c-2.72 0-4.926-2.206-4.926-4.926 0-2.721 2.206-4.926 4.926-4.926 2.721 0 4.926 2.205 4.926 4.926 0 2.72-2.205 4.926-4.926 4.926z" fill="none" stroke-width="3"/><path d="m260.007 209.042c-24.321 0-44.037-19.716-44.037-44.037s19.716-44.036 44.037-44.036 44.037 19.715 44.037 44.036-19.716 44.037-44.037 44.037z" fill="none" stroke-width="3"/><path d="m259.92 133.517h8.05v62.977h-8.05z" fill="none" stroke-width="3"/><path d="m285.963 131.523-17.993 21.781" fill="none" stroke-width="2"/><path d="m278.448 190.138-10.478-12.685" fill="none" stroke-width="2"/><path d="m275.673 192.43 8.889 5.109-3.339-9.694z" stroke-width="2"/><path d="m208.29 97.257 16.883 17.814" fill="none" stroke-width="2"/><path d="m222.56 117.547 9.216 4.491-3.99-9.444z" stroke-width="2"/><path d="m197.29 107.138 16.883 17.814" fill="none" stroke-width="2"/><path d="m211.56 127.428 9.216 4.492-3.99-9.444z" stroke-width="2"/></g></svg>